<svg xmlns="http://www.w3.org/2000/svg" viewBox="0 0 1440 320">
    <path fill="#00cba9" fill-opacity="0.3" d="M0,64L8.9,101.3C17.8,139,36,213,53,245.3C71.1,277,89,267,107,218.7C124.4,171,142,85,160,53.3C177.8,21,196,43,213,90.7C231.1,139,249,213,267,218.7C284.4,224,302,160,320,154.7C337.8,149,356,203,373,192C391.1,181,409,107,427,96C444.4,85,462,139,480,138.7C497.8,139,516,85,533,58.7C551.1,32,569,32,587,69.3C604.4,107,622,181,640,208C657.8,235,676,213,693,208C711.1,203,729,213,747,197.3C764.4,181,782,139,800,128C817.8,117,836,139,853,128C871.1,117,889,75,907,64C924.4,53,942,75,960,106.7C977.8,139,996,181,1013,192C1031.1,203,1049,181,1067,176C1084.4,171,1102,181,1120,181.3C1137.8,181,1156,171,1173,192C1191.1,213,1209,267,1227,288C1244.4,309,1262,299,1280,293.3C1297.8,288,1316,288,1333,245.3C1351.1,203,1369,117,1387,90.7C1404.4,64,1422,96,1431,112L1440,128L1440,320L1431.1,320C1422.2,320,1404,320,1387,320C1368.9,320,1351,320,1333,320C1315.6,320,1298,320,1280,320C1262.2,320,1244,320,1227,320C1208.9,320,1191,320,1173,320C1155.6,320,1138,320,1120,320C1102.2,320,1084,320,1067,320C1048.9,320,1031,320,1013,320C995.6,320,978,320,960,320C942.2,320,924,320,907,320C888.9,320,871,320,853,320C835.6,320,818,320,800,320C782.2,320,764,320,747,320C728.9,320,711,320,693,320C675.6,320,658,320,640,320C622.2,320,604,320,587,320C568.9,320,551,320,533,320C515.6,320,498,320,480,320C462.2,320,444,320,427,320C408.9,320,391,320,373,320C355.6,320,338,320,320,320C302.2,320,284,320,267,320C248.9,320,231,320,213,320C195.6,320,178,320,160,320C142.2,320,124,320,107,320C88.9,320,71,320,53,320C35.6,320,18,320,9,320L0,320Z"></path>
</svg>